<?xml version="1.0" encoding="utf-8"?>
<!-- Generator: Adobe Illustrator 19.2.1, SVG Export Plug-In . SVG Version: 6.00 Build 0)  -->
<svg version="1.1" id="Layer_1" xmlns:ev="http://www.w3.org/2001/xml-events"
	 xmlns="http://www.w3.org/2000/svg" xmlns:xlink="http://www.w3.org/1999/xlink" width="20" height="22" x="0px" y="0px" viewBox="0 0 20 22"
	 style="enable-background:new 0 0 20 22;" xml:space="preserve">
<style type="text/css">
	.st0{fill:#343D47;}
</style>
<path class="st0" d="M5.7,14.485h11.858c1.345,0,2.442-1.121,2.442-2.495V6.889c0-0.005,0-0.013,0-0.018c0-0.013,0-0.022,0-0.036
	c0-0.009,0-0.018-0.005-0.027c0-0.009-0.004-0.023-0.004-0.032c0-0.009-0.004-0.018-0.004-0.027
	c-0.005-0.009-0.005-0.018-0.009-0.032c-0.005-0.009-0.005-0.018-0.009-0.027c-0.005-0.009-0.005-0.018-0.009-0.027
	c-0.004-0.009-0.009-0.018-0.013-0.032c-0.005-0.008-0.009-0.018-0.014-0.023C19.929,6.6,19.925,6.591,19.92,6.582
	c-0.004-0.009-0.009-0.014-0.013-0.023c-0.005-0.009-0.013-0.018-0.018-0.027c-0.004-0.009-0.009-0.014-0.017-0.022
	c-0.005-0.01-0.014-0.014-0.018-0.023c-0.005-0.009-0.013-0.014-0.018-0.023c-0.004-0.009-0.013-0.013-0.018-0.018
	c-0.008-0.009-0.013-0.013-0.022-0.023c-0.009-0.004-0.013-0.013-0.022-0.017c-0.009-0.005-0.017-0.014-0.026-0.019
	c-0.009-0.004-0.014-0.009-0.022-0.014c-0.009-0.004-0.018-0.008-0.027-0.017c-0.009-0.005-0.018-0.01-0.026-0.014
	c-0.009-0.005-0.018-0.009-0.027-0.013c-0.009-0.005-0.018-0.01-0.027-0.014c-0.008-0.004-0.017-0.004-0.026-0.009
	c-0.009-0.005-0.022-0.009-0.031-0.009c-0.009,0-0.018-0.005-0.022-0.005c-0.013-0.004-0.022-0.004-0.036-0.004
	c-0.004,0-0.008-0.005-0.017-0.005l-15.03-2.12V2.02c0-0.023,0-0.046-0.004-0.064c0-0.004,0-0.009-0.005-0.018
	c0-0.013-0.004-0.027-0.004-0.041C4.439,1.884,4.439,1.875,4.435,1.861c0-0.009-0.004-0.014-0.004-0.022
	C4.426,1.825,4.422,1.812,4.417,1.798c0-0.005-0.004-0.014-0.004-0.018C4.408,1.766,4.404,1.757,4.395,1.744
	C4.391,1.739,4.391,1.73,4.386,1.725C4.382,1.717,4.378,1.707,4.369,1.698C4.364,1.689,4.36,1.685,4.355,1.676
	C4.351,1.667,4.347,1.662,4.342,1.653C4.338,1.644,4.329,1.635,4.324,1.626C4.32,1.622,4.316,1.617,4.311,1.613
	c-0.009-0.01-0.017-0.019-0.026-0.028C4.28,1.581,4.276,1.576,4.271,1.572C4.263,1.563,4.254,1.554,4.24,1.545
	C4.236,1.54,4.227,1.536,4.223,1.531C4.214,1.522,4.205,1.517,4.196,1.509C4.183,1.499,4.17,1.49,4.161,1.486
	C4.156,1.482,4.152,1.482,4.148,1.477C4.13,1.468,4.108,1.459,4.09,1.45L0.83,0.048C0.525-0.083,0.176,0.062,0.047,0.374
	c-0.128,0.312,0.014,0.669,0.319,0.8l2.892,1.248v2.767v0.439v3.364v3.006v3.799c0,1.266,0.929,2.315,2.128,2.473
	c-0.217,0.371-0.345,0.805-0.345,1.266C5.041,20.897,6.125,22,7.452,22c1.326,0,2.41-1.107,2.41-2.464
	c0-0.452-0.119-0.881-0.332-1.243h5.37c-0.212,0.366-0.332,0.791-0.332,1.243c0,1.361,1.084,2.464,2.411,2.464
	s2.41-1.107,2.41-2.464c0-1.357-1.083-2.464-2.41-2.464H5.7c-0.69,0-1.247-0.575-1.247-1.275v-1.655
	C4.815,14.359,5.244,14.485,5.7,14.485z M8.672,19.531c0,0.688-0.548,1.244-1.216,1.244c-0.668,0-1.216-0.561-1.216-1.244
	c0-0.682,0.548-1.243,1.216-1.243C8.124,18.288,8.672,18.845,8.672,19.531z M18.2,19.531c0,0.688-0.549,1.244-1.217,1.244
	c-0.668,0-1.216-0.561-1.216-1.244c0-0.682,0.548-1.243,1.216-1.243C17.651,18.288,18.2,18.845,18.2,19.531z M17.558,13.265H5.7
	c-0.69,0-1.247-0.575-1.247-1.275V8.983V5.619V5.392l14.353,2.022v4.571C18.806,12.695,18.244,13.265,17.558,13.265z"/>
</svg>
