<?xml version="1.0" encoding="utf-8"?>
<!-- Generator: Adobe Illustrator 19.2.1, SVG Export Plug-In . SVG Version: 6.00 Build 0)  -->
<svg version="1.1" id="Layer_1" xmlns:ev="http://www.w3.org/2001/xml-events"
	 xmlns="http://www.w3.org/2000/svg" xmlns:xlink="http://www.w3.org/1999/xlink" width="29" height="19" x="0px" y="0px" viewBox="0 0 29 19"
	 style="enable-background:new 0 0 29 19;" xml:space="preserve">
<style type="text/css">
	.st0{fill:#343D47;}
</style>
<path class="st0" d="M29,15.2c0,0.3-0.3,0.6-0.6,0.6h-1.2c-0.3,0-0.6-0.3-0.6-0.6c0-0.3,0.3-0.6,0.6-0.6h0.6l0-7.8L24,3.7h-4.8v10.8
	h1.2c0.3,0,0.6,0.3,0.6,0.6s-0.3,0.6-0.6,0.6h-7.2c-0.3,0-0.6-0.3-0.6-0.6s0.3-0.6,0.6-0.6H18V1.1H4.2v3.6c0,0.3-0.3,0.6-0.6,0.6
	C3.2,5.3,3,5,3,4.7V0.6C3,0.3,3.2,0,3.6,0h15c0.3,0,0.6,0.3,0.6,0.6v2h5c0.1,0,0.3,0,0.4,0.1l4.2,3.4C28.9,6.2,29,6.4,29,6.5
	L29,15.2z M10.2,5.7c0.3,0,0.6,0.3,0.6,0.6s-0.3,0.6-0.6,0.6H3c-0.3,0-0.6-0.3-0.6-0.6S2.7,5.7,3,5.7H10.2z M9.5,8.9
	c0,0.3-0.3,0.6-0.6,0.6l-7.2,0c-0.3,0-0.6-0.3-0.6-0.6c0-0.3,0.3-0.6,0.6-0.6c0,0,0,0,0,0l7.2,0C9.3,8.4,9.6,8.6,9.5,8.9z M8.3,11.5
	c0,0.3-0.3,0.6-0.6,0.6H0.6c-0.3,0-0.6-0.3-0.6-0.6c0-0.3,0.3-0.6,0.6-0.6h7.2C8.1,10.9,8.3,11.2,8.3,11.5z M3.6,12.5
	c0.3,0,0.6,0.3,0.6,0.6v1.5h1.2c0.3,0,0.6,0.3,0.6,0.6s-0.3,0.6-0.6,0.6H3.6c-0.3,0-0.6-0.3-0.6-0.6v-2.1C3,12.8,3.2,12.5,3.6,12.5z
	 M9.3,13.9c1.5,0,2.6,1.1,2.6,2.6c0,1.4-1.2,2.6-2.6,2.6c-0.7,0-1.4-0.3-1.9-0.7c-0.5-0.5-0.8-1.1-0.8-1.8c0-0.7,0.3-1.3,0.8-1.8
	C7.9,14.2,8.6,13.9,9.3,13.9z M9.3,17.9c0.8,0,1.5-0.6,1.5-1.4c0-0.8-0.6-1.4-1.5-1.4c-0.8,0-1.5,0.6-1.5,1.4
	C7.8,17.2,8.5,17.9,9.3,17.9z M25.8,11H21c-0.3,0-0.6-0.3-0.6-0.6V5.8c0-0.3,0.3-0.6,0.6-0.6h3c0.1,0,0.3,0.1,0.4,0.1l1.8,1.5
	c0.1,0.1,0.2,0.3,0.2,0.4v3.1C26.4,10.8,26.1,11,25.8,11z M25.2,7.6l-1.4-1.2h-2.2v3.5h3.6V7.6z M23.7,13.9c1.5,0,2.6,1.1,2.6,2.6
	c0,1.4-1.2,2.6-2.6,2.6c-0.7,0-1.4-0.3-1.9-0.7c-0.5-0.5-0.8-1.1-0.8-1.8c0-0.7,0.3-1.3,0.8-1.8C22.3,14.2,23,13.9,23.7,13.9z
	 M23.7,17.9c0.8,0,1.5-0.6,1.5-1.4c0-0.8-0.6-1.4-1.5-1.4c-0.8,0-1.5,0.6-1.5,1.4C22.2,17.2,22.9,17.9,23.7,17.9z"/>
</svg>
