<?xml version="1.0" encoding="utf-8"?>
<!-- Generator: Adobe Illustrator 19.2.1, SVG Export Plug-In . SVG Version: 6.00 Build 0)  -->
<svg version="1.1" id="Layer_1" xmlns:ev="http://www.w3.org/2001/xml-events"
	 xmlns="http://www.w3.org/2000/svg" xmlns:xlink="http://www.w3.org/1999/xlink" x="0px" y="0px" viewBox="0 0 20 22"
	 style="enable-background:new 0 0 20 22;" xml:space="preserve">
<style type="text/css">
	.st0{fill:#FE770C;}
</style>
<path class="st0" d="M5.7,14.485h11.858c1.345,0,2.442-1.122,2.442-2.496v-5.1c0-0.005,0-0.014,0-0.018c0-0.014,0-0.023,0-0.037
	c0-0.009,0-0.018-0.004-0.027c0-0.009-0.005-0.022-0.005-0.032c0-0.008-0.004-0.018-0.004-0.027
	c-0.005-0.009-0.005-0.018-0.009-0.031c-0.005-0.009-0.005-0.018-0.009-0.027c-0.004-0.009-0.004-0.018-0.009-0.028
	c-0.004-0.009-0.009-0.018-0.013-0.031c-0.005-0.009-0.009-0.018-0.013-0.023C19.929,6.6,19.925,6.591,19.92,6.582
	c-0.004-0.009-0.009-0.013-0.013-0.022c-0.004-0.01-0.013-0.019-0.018-0.028c-0.004-0.009-0.008-0.013-0.017-0.022
	c-0.005-0.009-0.014-0.014-0.018-0.023s-0.013-0.013-0.018-0.022c-0.004-0.009-0.013-0.014-0.017-0.018
	c-0.009-0.009-0.014-0.014-0.023-0.023c-0.008-0.005-0.013-0.014-0.022-0.018c-0.009-0.005-0.017-0.014-0.026-0.018
	c-0.009-0.005-0.013-0.009-0.022-0.014c-0.009-0.004-0.018-0.009-0.027-0.018c-0.009-0.005-0.018-0.009-0.026-0.014
	c-0.009-0.004-0.018-0.008-0.027-0.013c-0.009-0.004-0.018-0.009-0.026-0.014c-0.009-0.004-0.018-0.004-0.027-0.009
	c-0.009-0.004-0.022-0.009-0.031-0.009s-0.018-0.004-0.022-0.004c-0.013-0.005-0.022-0.005-0.035-0.005
	c-0.005,0-0.009-0.004-0.018-0.004L4.457,4.163V2.02c0-0.023,0-0.045-0.004-0.063c0-0.005,0-0.009-0.005-0.019
	c0-0.013-0.004-0.027-0.004-0.04C4.44,1.884,4.44,1.875,4.435,1.862c0-0.009-0.004-0.014-0.004-0.023
	C4.426,1.825,4.422,1.812,4.417,1.798c0-0.004-0.004-0.013-0.004-0.018C4.409,1.767,4.404,1.758,4.395,1.744
	C4.391,1.74,4.391,1.731,4.387,1.726C4.382,1.717,4.378,1.708,4.369,1.699C4.364,1.69,4.36,1.685,4.356,1.676
	C4.351,1.667,4.347,1.663,4.342,1.654C4.338,1.645,4.329,1.635,4.325,1.627C4.32,1.622,4.316,1.617,4.311,1.613
	C4.302,1.604,4.294,1.595,4.285,1.586C4.28,1.581,4.276,1.577,4.272,1.572C4.263,1.563,4.254,1.554,4.241,1.545
	C4.236,1.541,4.227,1.536,4.223,1.532c-0.009-0.01-0.018-0.014-0.027-0.023C4.183,1.5,4.17,1.491,4.161,1.486
	C4.157,1.482,4.152,1.482,4.148,1.477C4.13,1.468,4.108,1.459,4.09,1.45L0.83,0.048C0.525-0.083,0.176,0.062,0.047,0.374
	c-0.128,0.312,0.014,0.669,0.319,0.8l2.893,1.248v2.767v0.439v3.364v3.007v3.798c0,1.266,0.928,2.315,2.127,2.473
	c-0.217,0.371-0.345,0.805-0.345,1.267c0,1.36,1.084,2.464,2.411,2.464s2.41-1.108,2.41-2.464c0-0.453-0.119-0.882-0.331-1.244H14.9
	c-0.212,0.366-0.332,0.791-0.332,1.244c0,1.36,1.084,2.464,2.411,2.464c1.327,0,2.411-1.108,2.411-2.464
	c0-1.357-1.084-2.465-2.411-2.465H5.7c-0.69,0-1.247-0.574-1.247-1.275v-1.655C4.815,14.358,5.245,14.485,5.7,14.485z M8.672,19.531
	c0,0.687-0.548,1.243-1.216,1.243s-1.216-0.56-1.216-1.243c0-0.683,0.548-1.244,1.216-1.244C8.124,18.287,8.672,18.844,8.672,19.531
	z M18.2,19.531c0,0.687-0.549,1.243-1.217,1.243c-0.667,0-1.216-0.56-1.216-1.243c0-0.683,0.549-1.244,1.216-1.244
	C17.651,18.287,18.2,18.844,18.2,19.531z M17.558,13.264H5.7c-0.69,0-1.247-0.574-1.247-1.275V8.983V5.619V5.393l14.353,2.021v4.572
	C18.806,12.695,18.244,13.264,17.558,13.264z"/>
</svg>
