<?xml version="1.0" encoding="utf-8"?>
<!-- Generator: Adobe Illustrator 19.2.1, SVG Export Plug-In . SVG Version: 6.00 Build 0)  -->
<svg version="1.1" id="Layer_1" xmlns="http://www.w3.org/2000/svg" xmlns:xlink="http://www.w3.org/1999/xlink" x="0px" y="0px"
	 viewBox="0 0 19 19" style="enable-background:new 0 0 19 19;" xml:space="preserve">
<style type="text/css">
	.st0{fill:#EB3C3C;}
</style>
<g>
	<path class="st0" d="M9.5,0C4.3,0,0,4.3,0,9.5S4.3,19,9.5,19c5.2,0,9.5-4.3,9.5-9.5S14.7,0,9.5,0z M9.5,18C4.8,18,1,14.2,1,9.5
		s3.8-8.5,8.5-8.5c4.7,0,8.5,3.8,8.5,8.5S14.2,18,9.5,18z"/>
	<polygon class="st0" points="13.3,5 9.5,8.8 5.7,5 5,5.7 8.8,9.5 5,13.3 5.7,14 9.5,10.2 13.3,14 14,13.3 10.2,9.5 14,5.7 	"/>
</g>
</svg>
