<?xml version="1.0" encoding="utf-8"?>
<!-- Generator: Adobe Illustrator 19.2.1, SVG Export Plug-In . SVG Version: 6.00 Build 0)  -->
<svg version="1.1" id="Layer_1" xmlns="http://www.w3.org/2000/svg" xmlns:xlink="http://www.w3.org/1999/xlink" x="0px" y="0px"
	 viewBox="0 0 17 17" style="enable-background:new 0 0 17 17;" xml:space="preserve">
<style type="text/css">
	.st0{fill:#BABABA;}
</style>
<g>
	<g>
		<path class="st0" d="M8.5,0C3.8,0,0,3.8,0,8.5S3.8,17,8.5,17S17,13.2,17,8.5S13.2,0,8.5,0z M8.5,16.4c-4.3,0-7.9-3.5-7.9-7.9
			s3.5-7.9,7.9-7.9s7.9,3.5,7.9,7.9S12.8,16.4,8.5,16.4z"/>
		<g>
			<path class="st0" d="M8.2,11.2c-0.4,0-0.7,0.3-0.7,0.8c0,0.4,0.3,0.7,0.7,0.7c0.4,0,0.7-0.3,0.7-0.7C8.9,11.5,8.6,11.2,8.2,11.2z
				"/>
			<path class="st0" d="M8.4,4.3C7.7,4.3,7,4.5,6.6,4.8l0.3,0.8c0.3-0.2,0.8-0.4,1.2-0.4c0.8,0,1.1,0.4,1.1,1c0,0.5-0.3,1-0.8,1.6
				C7.8,8.6,7.6,9.3,7.7,9.9l0,0.3h0.9l0-0.3c0-0.6,0.2-1.1,0.7-1.8c0.6-0.7,1-1.3,1-2.1C10.4,5.2,9.7,4.3,8.4,4.3z"/>
		</g>
	</g>
</g>
</svg>
