<?xml version="1.0" encoding="utf-8"?>
<!-- Generator: Adobe Illustrator 19.2.1, SVG Export Plug-In . SVG Version: 6.00 Build 0)  -->
<svg version="1.1" id="Layer_1" xmlns:ev="http://www.w3.org/2001/xml-events"
	 xmlns="http://www.w3.org/2000/svg" xmlns:xlink="http://www.w3.org/1999/xlink" x="0px" y="0px" viewBox="0 0 9 12"
	 style="enable-background:new 0 0 9 12;" xml:space="preserve">
<style type="text/css">
	.st0{fill:#fff;}
</style>
<path class="st0" d="M8.024,8.578L6.155,7.622C5.979,7.532,5.869,7.351,5.869,7.15V6.473c0.045-0.056,0.093-0.12,0.141-0.19
	c0.243-0.35,0.437-0.74,0.578-1.16C6.864,4.994,7.043,4.715,7.043,4.4V3.6c0-0.193-0.07-0.379-0.195-0.525V2.011
	c0.011-0.11,0.054-0.765-0.41-1.305C6.037,0.237,5.384,0,4.5,0C3.615,0,2.963,0.237,2.561,0.706c-0.463,0.54-0.42,1.195-0.409,1.305
	v1.064C2.027,3.221,1.956,3.407,1.956,3.6v0.8c0,0.243,0.109,0.47,0.293,0.621c0.18,0.726,0.555,1.273,0.686,1.448v0.662
	c0,0.193-0.104,0.371-0.27,0.464L0.92,8.568C0.352,8.885,0,9.491,0,10.152V10.8C0,11.749,2.944,12,4.5,12S9,11.749,9,10.8v-0.609
	C9,9.504,8.626,8.885,8.024,8.578z"/>
</svg>
