<?xml version="1.0" encoding="utf-8"?>
<!-- Generator: Adobe Illustrator 19.2.1, SVG Export Plug-In . SVG Version: 6.00 Build 0)  -->
<svg version="1.1" id="Layer_1" xmlns:ev="http://www.w3.org/2001/xml-events"
	 xmlns="http://www.w3.org/2000/svg" xmlns:xlink="http://www.w3.org/1999/xlink" x="0px" y="0px" viewBox="0 0 16.974 16.974"
	 style="enable-background:new 0 0 16.974 16.974;" xml:space="preserve">
<style type="text/css">
	.st0{fill:#FE770C;}
</style>
<path class="st0" d="M16.766,15.769l-4.08-4.081c1.011-1.234,1.621-2.813,1.621-4.535C14.307,3.204,11.102,0,7.153,0
	C3.201,0,0,3.204,0,7.153s3.201,7.154,7.153,7.154c1.722,0,3.298-0.607,4.532-1.618l4.08,4.077c0.277,0.277,0.724,0.277,1.001,0
	C17.043,16.492,17.043,16.042,16.766,15.769z M7.153,12.883c-3.162,0-5.733-2.57-5.733-5.73c0-3.159,2.571-5.733,5.733-5.733
	c3.16,0,5.734,2.574,5.734,5.733C12.887,10.313,10.313,12.883,7.153,12.883z"/>
</svg>
