<?xml version="1.0" encoding="utf-8"?>
<!-- Generator: Adobe Illustrator 19.2.1, SVG Export Plug-In . SVG Version: 6.00 Build 0)  -->
<svg version="1.1" id="Capa_1" xmlns="http://www.w3.org/2000/svg" xmlns:xlink="http://www.w3.org/1999/xlink" x="0px" y="0px"
	 width="7.001px" height="10px" viewBox="0 0 7.001 10" enable-background="new 0 0 7.001 10" xml:space="preserve">
<g>
	<g>
		<path d="M6.19,6.736L3.976,8.618V0.404C3.976,0.18,3.764,0,3.5,0S3.024,0.18,3.024,0.404v8.213L0.81,6.736
			c-0.091-0.079-0.215-0.12-0.335-0.12c-0.123,0-0.243,0.039-0.335,0.12c-0.187,0.159-0.187,0.414,0,0.573l3.025,2.572
			C3.253,9.956,3.378,10,3.5,10c0.127,0,0.247-0.042,0.335-0.12L6.86,7.307c0.187-0.159,0.187-0.414,0-0.573
			C6.677,6.579,6.372,6.579,6.19,6.736z"/>
	</g>
</g>
</svg>
