<svg width="18" height="18" viewBox="0 0 18 18" fill="none" xmlns="http://www.w3.org/2000/svg"><path d="M17.406 2.319H.594A.594.594 0 0 0 0 2.913v10.73c0 .327.266.593.594.593h6.364a2.043 2.043 0 0 0 1.95 1.445c.919 0 1.697-.61 1.952-1.445h6.546a.594.594 0 0 0 .594-.594V2.912a.594.594 0 0 0-.594-.593zm-9 9.878H1.703V3.605h6.703v8.592zm7.891 0H9.595V3.605h6.704v8.592z" fill="#fff" fill-opacity=".5"/><path d="M5.054 4.813h-1.65a.594.594 0 1 0 0 1.188h1.65a.594.594 0 1 0 0-1.188zm1.65 2.415h-3.3a.594.594 0 1 0 0 1.188h3.3a.594.594 0 1 0 0-1.188zm0 2.415h-3.3a.594.594 0 1 0 0 1.188h3.3a.594.594 0 1 0 0-1.188zm7.839-4.83h-3.3a.594.594 0 1 0 0 1.188h3.3a.594.594 0 1 0 0-1.188zm0 2.415h-3.3a.594.594 0 1 0 0 1.188h3.3a.594.594 0 1 0 0-1.188zm0 2.415h-3.3a.594.594 0 1 0 0 1.188h3.3a.594.594 0 0 0 0-1.188z" fill="#fff" fill-opacity=".5"/></svg>