<svg width="18" height="18" viewBox="0 0 18 18" fill="none" xmlns="http://www.w3.org/2000/svg"><path d="M7.501 1.087h3.009v.506h1.086v-.577c0-.56-.455-1.016-1.015-1.016H7.43c-.56 0-1.015.456-1.015 1.016v.577H7.5v-.506zm6.604 4.81h-10.2a.478.478 0 0 0-.476.518l.853 10.543A1.132 1.132 0 0 0 5.41 18h7.19c.59 0 1.082-.453 1.13-1.042l.852-10.543a.478.478 0 0 0-.477-.518zm-7.73 10.978a.543.543 0 0 1-.576-.509l-.534-8.655a.543.543 0 0 1 1.085-.067l.534 8.656c.019.3-.21.557-.509.575zm3.18-.542a.543.543 0 0 1-1.087 0V7.677a.543.543 0 1 1 1.087 0v8.656zm3.19-8.624l-.51 8.656a.543.543 0 1 1-1.084-.064l.51-8.656a.543.543 0 1 1 1.085.064zm3.239-3.488l-.357-1.07a.691.691 0 0 0-.655-.472H3.039a.69.69 0 0 0-.655.472l-.357 1.07a.448.448 0 0 0 .425.59H15.56a.447.447 0 0 0 .425-.59z" fill="#C5C9CC"/></svg>