<svg width="18" height="18" viewBox="0 0 18 18" fill="none" xmlns="http://www.w3.org/2000/svg"><g clip-path="url(#a)" fill="#fff"><path d="M16.629 1.983H5.338c-.756 0-1.372.615-1.372 1.371v2.048h1.632c.507-1.221 2.11-1.559 3.062-.606l2.876 2.876a1.876 1.876 0 0 1 0 2.656L8.66 13.204c-.952.952-2.555.616-3.062-.606H3.966v2.047c0 .757.616 1.372 1.372 1.372h11.29c.757 0 1.372-.615 1.372-1.371V3.354c0-.756-.615-1.37-1.371-1.37z"/><path d="M6.707 11.876c0 .556.674.837 1.068.443l2.876-2.877a.626.626 0 0 0 0-.885L7.775 5.681a.626.626 0 0 0-1.068.443v.53H.626A.626.626 0 0 0 0 7.278v3.442c0 .346.28.626.626.626h6.08v.53z"/></g><defs><clipPath id="a"><path fill="#fff" d="M0 0h18v18H0z"/></clipPath></defs></svg>