<svg width="20" height="20" viewBox="0 0 20 20" fill="none" xmlns="http://www.w3.org/2000/svg"><path d="M18.88 15.383a.705.705 0 0 0 .038-.224V6.935a.706.706 0 0 0-.706-.705h-3.93v8.752c0 .14-.025.275-.07.4h-.46a.705.705 0 0 0 .036-.223V3.865a.706.706 0 0 0-.706-.706H6.918a.706.706 0 0 0-.706.706v11.294c0 .078.013.153.037.223h-.461a1.184 1.184 0 0 1-.07-.4V6.23H1.882a.706.706 0 0 0-.705.705v8.224c0 .078.013.153.036.223H0v1.46h20v-1.46h-1.12zM3.295 12.5H2.282v-1.012h1.012V12.5zm0-1.777H2.282v-1.01h1.012v1.011zm0-1.717H2.282V7.994h1.012v1.012zM4.871 12.5H3.859v-1.012H4.87V12.5zm0-1.777H3.859v-1.01H4.87v1.011zm0-1.717H3.859V7.994H4.87v1.012zm6.7 6.33H8.6v-3.707h2.97v3.706zM10 8.452a2.488 2.488 0 1 1 0-4.977 2.488 2.488 0 0 1 0 4.977zm6.424 4.047h-1.012v-1.012h1.011V12.5zm0-1.777h-1.012V9.713h1.011v1.011zm0-1.717h-1.012V7.994h1.011v1.012zM18 12.5h-1.012v-1.012H18V12.5zm0-1.777h-1.012v-1.01H18v1.011zm0-1.717h-1.012V7.994H18v1.012zm-7.383-3.659h.953v1.235h-.953v.953H9.382v-.953H8.43V5.347h.953v-.953h1.235v.953z" fill="#fff" fill-opacity=".5"/></svg>