<svg width="18" height="18" viewBox="0 0 18 18" fill="none" xmlns="http://www.w3.org/2000/svg"><path d="M9 8.803c2.001 0 3.624-1.97 3.624-4.401S12.09 0 9 0 5.376 1.97 5.376 4.402C5.376 6.832 7 8.803 9 8.803zm-6.845 6.721c0-.148 0-.042 0 0zm13.689.116c.002-.04.001-.282 0 0zm-.007-.294c-.067-4.235-.62-5.441-4.853-6.205 0 0-.595.76-1.984.76s-1.984-.76-1.984-.76c-4.187.755-4.773 1.944-4.85 6.068-.007.336-.01.354-.01.315v.445S3.163 18 9 18c5.836 0 6.844-2.031 6.844-2.031v-.33a2.742 2.742 0 0 1-.007-.293z" fill="#fff"/></svg>