<svg width="18" height="18" viewBox="0 0 18 18" fill="none" xmlns="http://www.w3.org/2000/svg"><path d="M10.862 4.026a3.27 3.27 0 0 1 1.522 2.43 2.64 2.64 0 1 0-1.522-2.43zM9.132 9.43a2.64 2.64 0 1 0 0-5.28 2.64 2.64 0 0 0 0 5.28zm1.12.18h-2.24a3.384 3.384 0 0 0-3.38 3.38v2.74l.007.043.19.059c1.778.556 3.323.74 4.595.74 2.484 0 3.924-.707 4.013-.753l.176-.089h.019v-2.74a3.383 3.383 0 0 0-3.38-3.38zm4.368-2.725h-2.223a3.254 3.254 0 0 1-1.004 2.266 4.017 4.017 0 0 1 2.87 3.843v.845c2.194-.08 3.458-.703 3.542-.745l.176-.09H18v-2.74a3.384 3.384 0 0 0-3.38-3.38zM4.5 6.706c.517 0 .997-.15 1.405-.407a3.267 3.267 0 0 1 1.228-2.084c.002-.05.007-.099.007-.148A2.64 2.64 0 1 0 4.5 6.706zm2.371 2.446a3.255 3.255 0 0 1-1.003-2.254c-.083-.006-.164-.012-.248-.012H3.38A3.384 3.384 0 0 0 0 10.266v2.74l.007.042.189.06c1.427.445 2.7.65 3.806.715v-.828a4.017 4.017 0 0 1 2.87-3.843z" fill="#fff" fill-opacity=".5"/></svg>