<svg width="18" height="18" viewBox="0 0 18 18" fill="none" xmlns="http://www.w3.org/2000/svg"><g clip-path="url(#a)" fill="#fff" fill-opacity=".5"><path d="M17.7 6.91l-8.25-6c-.3-.225-.6-.225-.9 0l-8.25 6c-.6.375-.224 1.35.45 1.35h1.5v8.249c0 .45.3.75.75.75h12c.45 0 .75-.3.75-.75v-8.25h1.5c.674 0 1.05-.974.45-1.35zM9 15.759a4.513 4.513 0 0 1-4.5-4.5c0-2.475 2.025-4.5 4.5-4.5s4.5 2.025 4.5 4.5-2.025 4.5-4.5 4.5z"/><path d="M10.125 10.134v-2.25h-2.25v2.25h-2.25v2.25h2.25v2.25h2.25v-2.25h2.25v-2.25h-2.25z"/></g><defs><clipPath id="a"><path fill="#fff" d="M0 0h18v18H0z"/></clipPath></defs></svg>