<svg width="18" height="18" viewBox="0 0 18 18" fill="none" xmlns="http://www.w3.org/2000/svg"><path d="M17.073 7H15.39a.629.629 0 0 1-.597-.399.629.629 0 0 1 .14-.705l1.19-1.19a.921.921 0 0 0 .272-.655.922.922 0 0 0-.271-.656l-1.518-1.518a.949.949 0 0 0-1.311 0l-1.19 1.19a.626.626 0 0 1-.451.192.673.673 0 0 1-.455-.18.624.624 0 0 1-.198-.468V.927A.928.928 0 0 0 10.073 0H7.927A.928.928 0 0 0 7 .927V2.61a.645.645 0 0 1-1.104.457l-1.19-1.19a.949.949 0 0 0-1.311 0L1.877 3.394a.921.921 0 0 0-.271.656c0 .247.096.48.271.655l1.19 1.19a.63.63 0 0 1 .14.705.628.628 0 0 1-.596.399H.927A.928.928 0 0 0 0 7.927v2.146c0 .511.416.927.927.927H2.61c.27 0 .493.149.597.399a.629.629 0 0 1-.14.705l-1.19 1.19a.921.921 0 0 0-.272.655c0 .248.096.48.271.656l1.518 1.518c.35.35.96.35 1.311 0l1.19-1.19A.645.645 0 0 1 7 15.39v1.683c0 .511.416.927.927.927h2.146a.928.928 0 0 0 .927-.927v-1.684a.645.645 0 0 1 1.104-.457l1.19 1.19a.95.95 0 0 0 1.311 0l1.518-1.517a.921.921 0 0 0 .271-.656.922.922 0 0 0-.271-.655l-1.191-1.19a.63.63 0 0 1-.14-.705.628.628 0 0 1 .597-.399h1.684a.928.928 0 0 0 .927-.927V7.927A.928.928 0 0 0 17.073 7zm-5.74 2A2.336 2.336 0 0 1 9 11.333 2.336 2.336 0 0 1 6.667 9 2.336 2.336 0 0 1 9 6.667 2.336 2.336 0 0 1 11.333 9z" fill="#fff" fill-opacity=".5"/></svg>