<svg width="18" height="18" viewBox="0 0 18 18" fill="none" xmlns="http://www.w3.org/2000/svg"><path d="M11.813 1.125H10.59a1.69 1.69 0 0 0-3.183 0h-1.22a.563.563 0 0 0-.563.563v2.25c0 .31.252.562.563.562h5.625c.31 0 .562-.252.562-.563v-2.25a.563.563 0 0 0-.563-.562z" fill="#fff" fill-opacity=".5"/><path d="M14.625 2.25H13.5v1.688a1.69 1.69 0 0 1-1.688 1.687H6.189A1.69 1.69 0 0 1 4.5 3.937V2.25H3.375c-.62 0-1.125.505-1.125 1.125v13.5c0 .631.494 1.125 1.125 1.125h11.25c.631 0 1.125-.494 1.125-1.125v-13.5c0-.631-.494-1.125-1.125-1.125zm-5.79 9.96l-2.25 2.25a.565.565 0 0 1-.796 0l-1.125-1.124a.563.563 0 0 1 .796-.796l.728.727 1.851-1.852a.563.563 0 0 1 .797.796zm0-4.5l-2.25 2.25a.565.565 0 0 1-.796 0L4.664 8.837a.563.563 0 0 1 .796-.796l.728.727 1.851-1.852a.563.563 0 0 1 .797.796zm4.102 5.79h-2.25a.563.563 0 0 1 0-1.125h2.25a.563.563 0 0 1 0 1.125zm0-4.5h-2.25a.563.563 0 0 1 0-1.125h2.25a.563.563 0 0 1 0 1.125z" fill="#fff" fill-opacity=".5"/></svg>