<?xml version="1.0" encoding="utf-8"?>
<!-- Generator: Adobe Illustrator 19.1.1, SVG Export Plug-In . SVG Version: 6.00 Build 0)  -->
<svg version="1.1" id="Layer_1" xmlns="http://www.w3.org/2000/svg" xmlns:xlink="http://www.w3.org/1999/xlink" x="0px" y="0px"
	 viewBox="0 0 19 19" style="enable-background:new 0 0 19 19;" xml:space="preserve">
<style type="text/css">
	.st0{fill:#EB3C3C;}
</style>
<g>
	<path class="st0" d="M9.5,0C4.262,0,0,4.262,0,9.5C0,14.738,4.262,19,9.5,19c5.238,0,9.5-4.262,9.5-9.5C19,4.262,14.738,0,9.5,0z
		 M9.5,18.05c-4.714,0-8.55-3.835-8.55-8.55c0-4.714,3.836-8.55,8.55-8.55c4.715,0,8.55,3.836,8.55,8.55
		C18.05,14.215,14.215,18.05,9.5,18.05z"/>
	<polygon class="st0" points="13.304,5 9.5,8.804 5.695,5 5,5.695 8.804,9.5 5,13.304 5.695,14 9.5,10.195 13.304,14 14,13.304 
		10.195,9.5 14,5.695 	"/>
</g>
</svg>
