<?xml version="1.0" encoding="utf-8"?>
<!-- Generator: Adobe Illustrator 19.2.1, SVG Export Plug-In . SVG Version: 6.00 Build 0)  -->
<svg version="1.1" id="Layer_1" xmlns:ev="http://www.w3.org/2001/xml-events"
	 xmlns="http://www.w3.org/2000/svg" xmlns:xlink="http://www.w3.org/1999/xlink" x="0px" y="0px" viewBox="0 0 21 21"
	 style="enable-background:new 0 0 21 21;" xml:space="preserve">
<style type="text/css">
	.st0{fill:#9F9F9F;}
</style>
<path class="st0" d="M10.5,21C4.7,21,0,16.3,0,10.5C0,4.7,4.7,0,10.5,0S21,4.7,21,10.5C21,16.3,16.3,21,10.5,21z M10.5,1
	C5.2,1,1,5.2,1,10.5S5.2,20,10.5,20s9.5-4.3,9.5-9.5S15.8,1,10.5,1z M11.8,10.7c-0.4,0.4-0.7,0.8-0.9,1.1c-0.1,0.3-0.2,0.7-0.2,1.3
	H9.4c0-0.7,0.1-1.2,0.2-1.6c0.2-0.4,0.5-0.9,1-1.4l0.6-0.6c0.2-0.2,0.3-0.3,0.4-0.5C11.9,8.7,12,8.4,12,8.1c0-0.5-0.1-0.9-0.4-1.2
	c-0.3-0.3-0.7-0.5-1.4-0.5c-0.8,0-1.3,0.3-1.6,0.9C8.4,7.6,8.3,8,8.3,8.6H7.1c0-1,0.3-1.8,0.9-2.4c0.6-0.6,1.4-0.9,2.3-0.9
	c0.9,0,1.7,0.3,2.2,0.8c0.6,0.5,0.8,1.2,0.8,2c0,0.5-0.1,0.9-0.3,1.2C12.8,9.6,12.4,10.1,11.8,10.7z M7.9,6.2c0,0-0.1,0.1-0.2,0.2
	C7.8,6.4,7.8,6.3,7.9,6.2z M10.8,15.7H9.4v-1.5h1.4V15.7z"/>
</svg>
