<?xml version="1.0" encoding="utf-8"?>
<!-- Generator: Adobe Illustrator 19.2.1, SVG Export Plug-In . SVG Version: 6.00 Build 0)  -->
<svg version="1.1" id="Layer_1" xmlns:ev="http://www.w3.org/2001/xml-events"
	 xmlns="http://www.w3.org/2000/svg" xmlns:xlink="http://www.w3.org/1999/xlink" x="0px" y="0px" viewBox="0 0 20 20"
	 style="enable-background:new 0 0 20 20;" xml:space="preserve">
<style type="text/css">
	.st0{fill:#fff;}
</style>
<path class="st0" d="M19.527,9.472c-0.034,0.004-0.063,0.009-0.097,0.009c-0.275,0-0.516-0.195-0.562-0.473
	c-0.334-1.967-1.264-3.761-2.693-5.188c-1.429-1.422-3.226-2.355-5.196-2.689c-0.312-0.055-0.52-0.346-0.469-0.658
	c0.055-0.308,0.347-0.519,0.655-0.464c2.207,0.375,4.215,1.414,5.813,3.009c1.598,1.596,2.638,3.601,3.014,5.804
	C20.047,9.13,19.836,9.426,19.527,9.472z M11.009,3.635c1.34,0.228,2.562,0.86,3.53,1.827c0.968,0.967,1.602,2.187,1.83,3.525
	c0.051,0.312-0.156,0.608-0.469,0.658c-0.034,0.004-0.063,0.009-0.097,0.009c-0.275,0-0.516-0.194-0.562-0.473
	C15.05,8.075,14.53,7.07,13.727,6.269c-0.803-0.803-1.809-1.326-2.917-1.512c-0.312-0.05-0.515-0.35-0.46-0.658
	C10.405,3.79,10.696,3.584,11.009,3.635z M7.221,7.395c-0.313,0.317-0.634,0.646-0.98,0.963c0.257,0.57,0.613,1.131,1.141,1.798
	c1.091,1.338,2.228,2.372,3.479,3.166c0.123,0.076,0.266,0.148,0.419,0.224c0.105,0.055,0.215,0.109,0.325,0.168l1.336-1.329
	c0.427-0.426,0.926-0.65,1.446-0.65c0.524,0,1.019,0.228,1.429,0.654l2.32,2.326c0.427,0.422,0.651,0.924,0.651,1.448
	c0,0.519-0.219,1.026-0.638,1.46c-0.182,0.19-0.368,0.372-0.55,0.545c-0.266,0.257-0.519,0.498-0.739,0.764
	c-0.005,0.008-0.013,0.013-0.017,0.021C16.2,19.649,15.38,20,14.404,20c-0.085,0-0.178-0.005-0.267-0.009
	c-1.45-0.092-2.747-0.637-3.72-1.097c-2.545-1.229-4.773-2.972-6.624-5.18c-1.526-1.831-2.549-3.541-3.234-5.386
	C0.28,7.577-0.084,6.429,0.018,5.196c0.068-0.764,0.376-1.423,0.917-1.963l1.438-1.447c0.004-0.005,0.004-0.005,0.008-0.009
	c0.423-0.405,0.922-0.62,1.437-0.62c0.516,0,1.006,0.215,1.416,0.62C5.509,2.03,5.776,2.301,6.029,2.562
	c0.127,0.136,0.262,0.27,0.393,0.401l1.154,1.153c0.888,0.886,0.888,2.034,0,2.921C7.458,7.155,7.34,7.277,7.221,7.395z
	 M6.773,4.922L5.619,3.769C5.484,3.63,5.349,3.495,5.218,3.36C4.96,3.094,4.714,2.845,4.457,2.604
	C4.452,2.6,4.448,2.596,4.444,2.592C4.309,2.457,4.093,2.296,3.827,2.296c-0.216,0-0.436,0.106-0.643,0.3l-1.441,1.44
	c-0.351,0.35-0.541,0.759-0.584,1.253C1.096,6.062,1.24,6.881,1.633,7.931c0.638,1.723,1.602,3.327,3.043,5.061
	c1.746,2.082,3.847,3.724,6.24,4.88c0.875,0.418,2.042,0.908,3.297,0.988c0.064,0.004,0.131,0.004,0.195,0.004
	c0.659,0,1.162-0.215,1.589-0.671c0.262-0.308,0.541-0.582,0.816-0.844c0.182-0.177,0.351-0.338,0.516-0.515
	c0.431-0.448,0.431-0.891-0.004-1.321l-2.33-2.326c-0.004-0.005-0.004-0.005-0.008-0.009c-0.131-0.143-0.347-0.308-0.609-0.308
	c-0.266,0-0.494,0.173-0.638,0.317l-1.446,1.444c-0.072,0.071-0.292,0.291-0.642,0.291c-0.14,0-0.275-0.034-0.419-0.106
	c-0.017-0.008-0.034-0.021-0.051-0.029c-0.122-0.077-0.266-0.148-0.418-0.224c-0.169-0.085-0.347-0.173-0.52-0.283
	c-1.357-0.857-2.587-1.976-3.754-3.411l-0.004-0.004C5.843,10.051,5.42,9.367,5.12,8.641C5.116,8.628,5.112,8.615,5.108,8.603
	C5.032,8.362,4.964,8.008,5.327,7.645C5.332,7.636,5.34,7.632,5.349,7.623c0.367-0.329,0.706-0.667,1.061-1.03
	c0.122-0.118,0.241-0.24,0.363-0.363C7.221,5.783,7.221,5.369,6.773,4.922z"/>
</svg>
