<svg version="1" xmlns="http://www.w3.org/2000/svg" width="933.333" height="933.333" viewBox="0 0 700.000000 700.000000"><path d="M123 1.1C59.1 8.3 8.1 59.7 1.1 124.2c-1.5 13.5-1.5 438.1 0 451.6 7.1 65.1 58 116 123.1 123.1 13.5 1.5 438.1 1.5 451.6 0 65.1-7.1 116-58 123.1-123.1 1.5-13.5 1.5-438.1 0-451.6-7.1-65.1-58-116-123.1-123.1C564-.2 134.5-.2 123 1.1zm255.1 164.4c13.9 24.2 26.9 47.6 29.1 52 7.6 16 8.7 32.2 3.2 48.5-2.3 6.6-16.7 32.4-64.3 115-65.9 114.2-68.4 118.5-73.9 124.3-4.8 5.1-14.5 11.9-20.6 14.6-12.6 5.5-11.6 5.4-76.5 5.8-33.2.3-60.7.1-61.1-.4-.5-.6 221.6-387.6 234-407.7 1.5-2.3-1.7-7.5 30.1 47.9zM457.3 359c9.3 2 22.6 7.8 30.1 12.9 5.9 4.1 16.7 14.9 20.7 20.8 3 4.4 76.9 132.2 76.9 133 0 .2-35.2.2-78.2 0-68.8-.3-79.2-.6-85.4-2-26-6.2-46.5-22.5-57.9-46.1-5.6-11.7-7.4-18.6-8.2-31.6-1.6-29 11.6-56.6 35.2-73.5 19.1-13.7 43.6-18.6 66.8-13.5z"/><path d="M418.1 420.1c.6 1.3 2.3 4.1 3.6 6.1 2.3 3.8 2.3 3.8 9.2 3.8 5.4 0 7.1.4 8.5 1.9 1.8 1.9 4.1 9.9 3.2 10.8-.3.3-2.5-.3-5-1.2-5.6-2.1-12.6-1.6-18.5 1.5-10.9 5.5-10.8 24.1.2 29.1 6.9 3.1 16.4 2.1 21.3-2.2 2.7-2.5 3.4-2.4 3.4.6 0 2.4.3 2.5 6.1 2.5h6.1l-.4-20.3c-.5-20.9-1.1-24.2-5.1-28.5-4.3-4.7-7.5-5.6-21.1-6l-12.8-.4 1.3 2.3zm22.4 31.1c3.5 1.6 3.4 5.9-.1 8.7-3.3 2.6-11.5 2.9-13.8.5-2.4-2.3-2-7 .6-8.8 2.6-1.9 9.6-2.1 13.3-.4zm29.2-32.5c-.4.3-.7 12.7-.7 27.5V473h14.1l-.3-23.4c-.3-23.4-.3-23.4-2.8-26.2-1.4-1.4-3.9-3.3-5.7-4-3.7-1.6-3.8-1.6-4.6-.7z"/></svg>