<svg xmlns="http://www.w3.org/2000/svg" width="180" height="180" shape-rendering="geometricPrecision" text-rendering="geometricPrecision" image-rendering="optimizeQuality" fill-rule="evenodd" clip-rule="evenodd" viewBox="0 0 2097739 2097732"><path fill="none" d="M0-2h2097739v2097735H0z"/><path fill="#00A2DB" fill-rule="nonzero" d="M1231941 1477875v297255c0 36193-14800 69090-38638 92925-23835 23838-56738 38638-92928 38638H309940c-36197 0-69093-14800-92931-38635-23835-23835-38635-56732-38635-92928V322603c0-36191 14800-69094 38638-92929 23835-23835 56731-38634 92928-38634h790435c36196 0 69093 14799 92928 38634 23838 23835 38638 56738 38638 92929v631178l142388 53950c4834-9937 11285-18946 19016-26676 17855-17856 42519-28900 69760-28900 21235 0 40911 6713 57009 18130l209817-241002c-17373-17786-28077-42107-28077-68928 0-27234 11044-51905 28899-69761h67c17855-17849 42499-28899 69694-28899 27191 0 51839 11050 69695 28899l66 66c17849 17856 28899 42504 28899 69695 0 27241-11044 51905-28899 69761-13958 13957-32074 23755-52332 27366l506 685429h100913v34964h-687421zM535419 666377c14060 0 26792 5702 36008 14919 9217 9217 14919 21949 14919 36008 0 14060-5702 26792-14919 36009-9216 9217-21948 14919-36008 14919s-26792-5702-36008-14919c-9217-9217-14919-21949-14919-36009 0-14006 5702-26722 14919-35942v-66c9216-9217 21948-14919 36008-14919zm11291 39636c-2884-2884-6878-4671-11291-4671-4414 0-8408 1787-11292 4671l-33-33c-2864 2881-4638 6885-4638 11324 0 4414 1788 8408 4671 11292 2884 2884 6878 4671 11292 4671 4413 0 8407-1787 11291-4671s4672-6878 4672-11292c0-4413-1788-8407-4672-11291zM349001 879005l41109-41109c-23680-28502-39143-64091-42728-103109h-58119v-34965h58119c3581-39018 19045-74607 42725-103113l-41106-41106 24717-24717 41106 41106c28506-23679 64095-39143 103113-42724v-58119h34964v58119c39018 3584 74607 19048 103110 42728l41109-41110 24717 24717-41109 41110c23679 28506 39140 64091 42721 103109h58129v34965h-58129c-3584 39018-19045 74603-42724 103106l41112 41112-24717 24717-41112-41112c-28503 23680-64089 39140-103107 42725v58128h-34964v-58128c-39018-3581-74604-19042-103110-42722l-41109 41109-24717-24717zm295220-270509c-27843-27839-66315-45063-108805-45063s-80963 17224-108805 45063c-27839 27842-45064 66315-45064 108805s17225 80963 45064 108805c27842 27839 66315 45063 108805 45063s80962-17224 108805-45063c27838-27842 45063-66315 45063-108805s-17225-80963-45063-108805zm900448 386803c10789 15818 17096 34929 17096 55516 0 27241-11044 51905-28899 69761-14440 14439-33336 24426-54442 27716l472 294619h149276l-469-542988-83034 95376zm117827-135338l502 582950h120625l-505-685426c-8639-1536-16885-4202-24588-7829l-96034 110305zm-465520 80573V413056H213338v1219173h983638v-154354H503920v-34964h105620l-446-177704c-20280-3604-38420-13405-52390-27376-17856-17855-28900-42520-28900-69760 0-27241 11044-51905 28900-69761 17855-17856 42519-28899 69760-28899 22844 0 43887 7799 60623 20875l195939-164450c-8292-14446-13033-31188-13033-49034 0-27234 11044-51905 28900-69761h66c17855-17849 42500-28899 69694-28899 27241 0 51905 11044 69761 28899 17855 17856 28902 42520 28902 69761 0 4830-350 9574-1020 14218l130680 49514zm-141737-16406c-4530 8272-10208 15818-16825 22435-14562 14561-33657 24594-54981 27799l492 468549h120625l-502-500293-48809-18490zm83648 31691l489 487092h149257l-496-430542-149250-56550zm184092 69751l479 417341h120612l-472-295365c-19415-3895-36775-13492-50253-26970-17856-17856-28900-42520-28900-69761 0-3161 149-6286 440-9369l-41906-15876zm-612572 90711c9326 15061 14717 32804 14717 51790 0 27194-11050 51838-28899 69694v66c-13951 13951-32061 23743-52305 27360l446 177720h134946l-463-384075-68442 57445zm103232-86645l498 413275h134963l-493-469491c-16184-3340-30917-10644-43144-20852l-91824 77068zm1031952-414358c-11520-11499-27459-18618-45077-18618-17621 0-33557 7119-45077 18618l33 33c-11522 11523-18651 27453-18651 45044 0 17595 7129 33521 18651 45044 11523 11522 27453 18655 45044 18655s33521-7133 45044-18655c11522-11523 18651-27449 18651-45044 0-17618-7119-33557-18618-45077zm-337442 390494c-11523-11523-27449-18652-45044-18652-17594 0-33521 7129-45043 18652-11523 11522-18652 27449-18652 45043 0 17595 7129 33521 18652 45044 11522 11522 27449 18651 45043 18651 17595 0 33521-7129 45044-18651 11522-11523 18651-27449 18651-45044 0-17594-7129-33521-18651-45043zm-494452-174014c-11523-11522-27449-18651-45044-18651-17621 0-33557 7119-45076 18618l33 33c-11523 11523-18652 27453-18652 45044 0 17595 7129 33521 18652 45044 11522 11522 27449 18651 45043 18651 17595 0 33521-7129 45044-18651 11522-11523 18655-27453 18655-45044s-7133-33521-18655-45044zm-342156 291236c-11520-11500-27459-18619-45077-18619-17594 0-33521 7129-45043 18652-11523 11523-18652 27449-18652 45044 0 17594 7129 33520 18652 45043 11522 11523 27449 18652 45043 18652 17591 0 33521-7129 45044-18652l33 33c11499-11519 18618-27455 18618-45076 0-17618-7119-33558-18618-45077zm-73831 631257h211654v34965H597710v-34965zm-384372-87057v107936c0 26547 10876 50699 28388 68211 17515 17512 41667 28387 68214 28387h790435c26547 0 50699-10875 68211-28390 17515-17512 28390-41661 28390-68208v-107936H213338zm983638-1289102v-55489c0-26548-10875-50700-28390-68212-17512-17512-41664-28387-68211-28387H309940c-26547 0-50699 10875-68211 28387-17515 17512-28391 41664-28391 68212v55489h983638z"/></svg>