<svg xmlns="http://www.w3.org/2000/svg" width="180" height="180" shape-rendering="geometricPrecision" text-rendering="geometricPrecision" image-rendering="optimizeQuality" fill-rule="evenodd" clip-rule="evenodd" viewBox="0 0 4643721 4643707"><path fill="none" d="M0-4h4643721v4643714H0z"/><path fill="#00A2DB" fill-rule="nonzero" d="M706884 2099079c17346-22560 35972-41128 57480-55783 37135-25310 80647-37969 137615-37969 63220 0 120898 22202 162998 58072 43710 37245 70760 89152 70760 146837 0 94015-52631 185164-131589 274872-74658 84822-173419 168965-272173 253101l-25091 21375-25091-21375c-98746-84128-197508-168286-272151-253101-78958-89708-131589-180857-131589-274872 0-57685 27050-109592 70760-146837 42101-35870 99770-58072 162998-58072 56961 0 100465 12659 137601 37969 21507 14655 40126 33223 57472 55783zm3397295 466040v520659c0 48485-19818 92546-51724 124452-31906 31907-75967 51725-124452 51725-48499 0-92560-19818-124466-51725-31907-31906-51725-75967-51725-124452v-520674c-51432-22334-97803-54145-136883-93226-80121-80127-129688-190824-129688-313089 0-122250 49567-232961 129688-313082 80120-80120 190816-129687 313082-129687 122265 0 232961 49567 313089 129687 80120 80121 129688 190832 129688 313082 0 122265-49575 232962-129696 313082-39095 39095-85473 70906-136913 93248zm-274966 25375v495284c0 27131 11130 51827 29039 69737 17910 17909 42606 29039 69737 29039 27145 0 51841-11130 69750-29039 17910-17910 29040-42606 29040-69737v-495276c-31760 7240-64822 11064-98768 11064-33962 0-67031-3824-98798-11072zm357171-690071c-66116-66109-157469-107003-258373-107003-100905 0-192258 40894-258367 107003s-107003 157462-107003 258366 40894 192258 107003 258374c66109 66109 157462 107003 258367 107003 100904 0 192257-40894 258366-107010 66109-66109 107010-157463 107010-258367s-40894-192257-107003-258366zM1875654 4029075h400340v-844148h77400v844148h400325V2974856h-878065v1054219zm878065 77401h-400325v202247h400325v-202247zm-477725 0h-400340v202247h400340v-202247zm-400340-1209021h878065v-791385h77401v830086c0 46795 19174 89378 50042 120254 30875 30868 73459 50042 120254 50042 46825 0 89401-19174 120269-50042 30875-30876 50050-73452 50050-120254v-830086c0-94425-38656-180293-100919-242556-62262-62262-148131-100918-242556-100918H1801113c-94425 0-180301 38656-242556 100918-62262 62263-100918 148131-100918 242556v830086c0 46795 19174 89378 50042 120254 30875 30868 73459 50042 120254 50042 46825 0 89401-19174 120269-50042 30875-30876 50050-73452 50050-120254v-830086h77400v791385zm955466 218219v1270449H1798261l-7-1270464c-44448 42196-104473 68193-170297 68193-68179 0-130119-27862-174991-72727-44865-44872-72728-106813-72728-174969v-830086c0-115778 47344-221012 123604-297271 76252-76259 181485-123603 297271-123603h1027147c115779 0 221012 47344 297272 123603 76259 76259 123603 181493 123603 297271v830086c0 68156-27862 130097-72735 174969-44864 44865-106805 72727-174962 72727-65846 0-125870-25983-170318-68178zM2324369 608583c142588 0 271705 57809 365165 151269 93459 93459 151268 222577 151268 365164 0 29654-2508 58731-7313 87017l264685 65948c12527-26136 29376-49793 49633-70050 46020-46021 109592-74490 179796-74490 53516 0 103178 16549 144145 44792l451802-504740c-36214-43943-57985-100253-57985-161631 0-70204 28477-133775 74483-179796 46020-46005 109591-74482 179796-74482 70204 0 133776 28477 179796 74482 46006 46021 74482 109592 74482 179796 0 70212-28476 133776-74482 179797-46020 46020-109599 74482-179796 74482-51235 0-98930-15167-138858-41245l-453089 506173c33823 43175 53992 97562 53992 156650 0 70205-28477 133776-74483 179797-46020 46005-109591 74482-179803 74482-70204 0-133776-28477-179796-74482-46006-46021-74483-109592-74483-179797 0-12132 849-24059 2494-35745l-260933-65012c-25566 77466-68968 146836-125351 203219-93460 93460-222577 151268-365165 151268s-271705-57808-365165-151268c-93459-93459-151268-222577-151268-365165 0-29683 2516-58781 7320-87089l-172147-42884c-12461 39234-34188 74351-62606 102769-46005 46006-109584 74483-179788 74483-70205 0-133776-28477-179797-74483-8256-8256-15949-17083-23013-26414l-433563 234533c8944 25969 13814 53838 13814 82834 0 70212-28477 133776-74482 179796-46021 46021-109599 74483-179796 74483-70205 0-133776-28477-179797-74483-46005-46020-74482-109592-74482-179796s28477-133783 74482-179789c46021-46020 109592-74489 179797-74489 70204 0 133775 28476 179796 74482 8907 8907 17149 18480 24666 28623l432824-234131c-9528-26707-14728-55469-14728-85445 0-70197 28462-133776 74482-179796 46021-46006 109585-74482 179797-74482 70204 0 133775 28476 179796 74482 46005 46020 74482 109592 74482 179796v424l178882 44558c25566-77437 68961-146778 125329-203146 93460-93460 222577-151269 365165-151269zm310449 205984c-79440-79440-189208-128583-310449-128583s-231009 49143-310449 128583c-46576 46576-82724 103581-104678 167211l180557 44974c12878-30707 31599-58350 54789-81539 46020-46006 109584-74482 179796-74482 70204 0 133775 28476 179796 74482 46006 46020 74482 109592 74482 179796 0 7847-358 15606-1053 23270l180513 44975c3466-22239 5280-45026 5280-68238 0-121241-49143-231008-128584-310449zm-744194 242139c-3474 22268-5288 45070-5288 68310 0 121242 49143 231009 128584 310450 79440 79440 189208 128583 310449 128583s231009-49143 310449-128583c46591-46591 82754-103625 104700-167277l-180520-44974c-12878 30729-31622 58386-54826 81590-46005 46006-109584 74483-179788 74483-70205 0-133776-28477-179796-74483-46006-46020-74483-109592-74483-179796 0-7869 358-15642 1061-23328l-180542-44975zm2354300-669924c-31994-31994-76230-51798-125080-51798-48843 0-93079 19804-125081 51798-31994 32001-51797 76237-51797 125080 0 48844 19803 93080 51797 125081 32002 31994 76238 51798 125081 51798 48850 0 93079-19796 125080-51798 31995-32001 51798-76230 51798-125081 0-48843-19803-93079-51798-125080zm-792240 875857c-31995-31994-76231-51798-125081-51798-48851 0-93079 19804-125081 51805-31994 31994-51797 76223-51797 125073 0 48844 19803 93080 51797 125081 32002 31994 76238 51798 125081 51798 48850 0 93094-19804 125088-51798 31994-32001 51798-76237 51798-125081 0-48850-19804-93079-51805-125080zM2449464 999928c-31994-31994-76230-51797-125080-51797-48851 0-93080 19803-125081 51797-32001 32002-51798 76231-51798 125081 0 48843 19804 93079 51798 125081 32001 31994 76237 51797 125081 51797 48850 0 93079-19803 125073-51797 32001-32002 51805-76230 51805-125081 0-48850-19804-93086-51798-125081zm-923669-206992c-31994-31995-76230-51798-125080-51798-48851 0-93080 19803-125081 51798-32002 32001-51798 76230-51798 125080 0 48843 19804 93079 51798 125081 32001 31994 76237 51797 125081 51797 48850 0 93079-19803 125073-51797 32001-32002 51805-76230 51805-125081 0-48850-19804-93086-51798-125080zm-876837 470749c-31994-31995-76230-51798-125080-51798-48851 0-93080 19803-125081 51805-31994 31994-51798 76223-51798 125073 0 48843 19804 93079 51798 125081 32001 31994 76237 51797 125081 51797 48850 0 93079-19796 125080-51797 31994-32002 51798-76230 51798-125081 0-48850-19804-93086-51798-125080zm3303741 2921281v127384h-77400v-127384h77400zm0-254805v127384h-77400v-127384h77400zm0-254784v127385h-77400v-127385h77400zm0-284919v127384h-77400v-127384h77400zM759581 4184966v127384h-77400v-127384h77400zm0-254805v127384h-77400v-127384h77400zm0-254784v127385h-77400v-127385h77400zm0-284919v127384h-77400v-127384h77400zm0-254791v127392h-77400v-127392h77400zm0-254783v127385h-77400v-127385h77400zm48310-773805c-25216 17179-46204 44353-67755 81086l-33252 56676-33252-56676c-21551-36733-42539-63907-67747-81086-23811-16227-53487-24352-94074-24352-44441 0-84311 15028-112817 39322-26889 22911-43541 54130-43541 88187 0 72193 44902 147275 112239 223783 65407 74322 151415 149214 239192 224149 87792-74935 173800-149834 239214-224149 67338-76508 112239-151590 112239-223783 0-34057-16652-65276-43541-88187-28506-24294-68376-39322-112817-39322-40594 0-70270 8118-94088 24352z"/></svg>