<svg xmlns="http://www.w3.org/2000/svg" width="180" height="180" shape-rendering="geometricPrecision" text-rendering="geometricPrecision" image-rendering="optimizeQuality" fill-rule="evenodd" clip-rule="evenodd" viewBox="0 0 3425877 3425866"><path fill="none" d="M0-3h3425877v3425871H0z"/><path fill="#00A2DB" fill-rule="nonzero" d="M1174358 1678388h1047175v57102H1174358v-57102zM2692162 331280v323521h-91161l191510 249506 219828-249506h-85809V401114h57101v196586h155050l-349154 396284-304169-396284h149702V331280h57102zM436905 1065615V715431H287202l304169-396285 349154 396285H785475v202682h-57101V658329h85809L594355 408829 402845 658329h91161v407286h-57101zm1681560 1991584v-227657h-836475v227657h836475zm57102-227657v227657h93621v57101H1117305v-57101h107584v-227657H708369c-53946 0-102987-22055-138513-57581-35522-35527-57582-84557-57582-138514V1289549c0-53951 22060-102987 57582-138514 35526-35521 84562-57581 138513-57581h278623V311566h1124503l297409 312165v469723h271659c53950 0 102981 22060 138502 57587 35532 35526 57593 84573 57593 138508v1343898c0 53957-22055 102987-57582 138514-35527 35526-84557 57581-138513 57581h-504996zM569375 2500442h2250181V1289549c0-38187-15651-72942-40857-98142-25195-25201-59945-40852-98136-40852h-271659v1134456H986992V1150555H708369c-38197 0-72947 15651-98147 40846-25196 25201-40847 59950-40847 98148v1210893zm2250181 57102H569375v75903c0 38198 15651 72947 40847 98148 25200 25200 59950 40846 98147 40846h1972194c38197 0 72947-15646 98147-40846 25200-25201 40846-59950 40846-98148v-75903zM2127907 411353l280 195146h185634l-185914-195146zm223895 252247h-236266c79086 94495 126703 216246 126703 349095 0 150290-60932 286365-159424 384858-98493 98492-234579 159424-384864 159424s-286371-60932-384864-159424c-98492-98493-159424-234568-159424-384858 0-150286 60932-286371 159424-384864 98493-98493 234579-159425 384864-159425 144540 0 275921 56363 373377 148284l-356-248022H1044094v1859242h1307708V663600zm-625300-137261v457805h457805c-7116-123170-59983-234071-141858-315947-81876-81876-192778-134742-315947-141858zm457805 514906h-514907V526339c-123170 7116-234071 59982-315947 141858-88155 88156-142689 209960-142689 344498 0 134531 54534 256336 142689 344492 88156 88155 209961 142689 344498 142689s256342-54534 344498-142689c81875-81876 134742-192783 141858-315942zm37226 1062481h-102981v-57102h102981v57102zm-1047175-57102h884875v57102h-884875v-57102zm0-191984h1047175v57102H1174358v-57102z"/></svg>