<?xml version="1.0" encoding="utf-8"?>
<!-- Generator: Adobe Illustrator 19.2.1, SVG Export Plug-In . SVG Version: 6.00 Build 0)  -->
<svg version="1.1" id="Layer_1" xmlns:ev="http://www.w3.org/2001/xml-events"
	 xmlns="http://www.w3.org/2000/svg" xmlns:xlink="http://www.w3.org/1999/xlink" x="0px" y="0px" width="42" height="28" viewBox="0 0 42 28"
	 style="enable-background:new 0 0 42 28;" xml:space="preserve">
<style type="text/css">
	.st0{fill:#0173ba;}
</style>
<path class="st0" d="M41.9,22.3c0,0.5-0.4,0.8-0.9,0.8h-1.7c-0.5,0-0.9-0.4-0.9-0.8s0.4-0.8,0.9-0.8h0.9L40.3,10l-5.6-4.5h-6.9v16
	h1.7c0.5,0,0.9,0.4,0.9,0.8c0,0.5-0.4,0.8-0.9,0.8H19.1c-0.5,0-0.9-0.4-0.9-0.8c0-0.5,0.4-0.8,0.9-0.8h7V1.7H6V7
	c0,0.5-0.4,0.8-0.9,0.8C4.7,7.8,4.3,7.4,4.3,7V0.8C4.3,0.4,4.7,0,5.2,0H27c0.5,0,0.9,0.4,0.9,0.8v3H35c0.2,0,0.4,0.1,0.5,0.2l6.1,5
	C41.9,9.2,42,9.4,42,9.7L41.9,22.3z M14.7,8.5c0.5,0,0.9,0.4,0.9,0.8c0,0.5-0.4,0.8-0.9,0.8H4.3c-0.5,0-0.9-0.4-0.9-0.8
	c0-0.5,0.4-0.8,0.9-0.8H14.7z M13.8,13.2c0,0.5-0.4,0.8-0.9,0.8L2.6,13.9c-0.5,0-0.9-0.4-0.8-0.8c0-0.5,0.4-0.8,0.9-0.8c0,0,0,0,0,0
	L13,12.3C13.5,12.3,13.8,12.7,13.8,13.2z M12.1,16.9c0,0.5-0.4,0.8-0.9,0.8H0.9c-0.5,0-0.9-0.4-0.9-0.8s0.4-0.8,0.9-0.8h10.4
	C11.7,16.1,12.1,16.5,12.1,16.9z M5.2,18.4c0.5,0,0.9,0.4,0.9,0.8v2.2h1.7c0.5,0,0.9,0.4,0.9,0.8c0,0.5-0.4,0.8-0.9,0.8H5.2
	c-0.5,0-0.9-0.4-0.9-0.8v-3.1C4.3,18.8,4.7,18.4,5.2,18.4z M13.5,20.5c2.1,0,3.8,1.7,3.8,3.8c0,2.1-1.7,3.8-3.8,3.8
	c-1,0-2-0.4-2.7-1.1c-0.7-0.7-1.1-1.7-1.1-2.7c0-1,0.4-1.9,1.1-2.7C11.5,20.9,12.4,20.5,13.5,20.5z M13.5,26.3
	c1.2,0,2.1-0.9,2.1-2.1c0-1.2-0.9-2.1-2.1-2.1c-1.2,0-2.2,1-2.2,2.1C11.3,25.4,12.3,26.3,13.5,26.3z M37.3,16.3h-7
	c-0.5,0-0.9-0.4-0.9-0.8V8.6c0-0.5,0.4-0.8,0.9-0.8h4.4c0.2,0,0.4,0.1,0.6,0.2l2.6,2.3c0.2,0.2,0.3,0.4,0.3,0.6v4.6
	C38.2,15.9,37.8,16.3,37.3,16.3z M36.5,11.2l-2.1-1.8h-3.2v5.2h5.3V11.2z M34.3,20.5c2.1,0,3.8,1.7,3.8,3.8c0,2.1-1.7,3.8-3.8,3.8
	c-1,0-2-0.4-2.7-1.1c-0.7-0.7-1.1-1.7-1.1-2.7c0-1,0.4-1.9,1.1-2.7C32.3,20.9,33.3,20.5,34.3,20.5z M34.3,26.3
	c1.2,0,2.1-0.9,2.1-2.1c0-1.2-0.9-2.1-2.1-2.1c-1.2,0-2.2,1-2.2,2.1C32.2,25.4,33.2,26.3,34.3,26.3z"/>
</svg>
