<?xml version="1.0" encoding="utf-8"?>
<!-- Generator: Adobe Illustrator 19.2.1, SVG Export Plug-In . SVG Version: 6.00 Build 0)  -->
<svg version="1.1" id="Layer_1" xmlns:ev="http://www.w3.org/2001/xml-events"
	 xmlns="http://www.w3.org/2000/svg" xmlns:xlink="http://www.w3.org/1999/xlink" x="0px" y="0px" width="36" height="37" viewBox="0 0 36 37"
	 style="enable-background:new 0 0 36 37;" xml:space="preserve">
<style type="text/css">
	.st0{fill:#FE770C;}
</style>
<path class="st0" d="M34,30c0.4-0.7,0.6-1.5,0.4-2.3l-1.9-8.6l2.3-1.7c1.4-1.1,1.7-3.1,0.6-4.6L26.4,1.3c-0.5-0.7-1.3-1.1-2.2-1.2
	c-0.9-0.1-1.7,0.1-2.4,0.6l-20,15.2c-0.5,0.4-0.9,0.9-1.1,1.5c-0.1,0.1-0.1,0.2-0.2,0.2c-0.4,0.7-0.6,1.5-0.4,2.3l3.3,14.8
	c0.1,0.3,0.1,0.5,0.3,0.7c0.6,1.2,2,1.8,3.3,1.5l25.1-5.6C32.9,31.1,33.5,30.7,34,30z M30.8,19.2L2.9,25.4l-0.8-3.7L30,15.5
	L30.8,19.2z M34.1,13.8c0.6,0.7,0.4,1.8-0.3,2.4l-1.7,1.3l-1-4.5c-0.2-0.8-0.6-1.4-1.3-1.9c-0.7-0.4-1.5-0.6-2.3-0.4l-2,0.4L29.6,8
	L34.1,13.8z M13,13.9L26.3,3.8l2.3,3L21.8,12L13,13.9z M22.8,1.9c0.4-0.3,0.8-0.4,1.3-0.3c0.4,0.1,0.8,0.3,1.1,0.6l0.2,0.3L9.3,14.8
	l-4.9,1.1L22.8,1.9z M2.7,17.9l25.1-5.6c0.4-0.1,0.7,0,1.1,0.2c0.2,0.1,0.4,0.3,0.5,0.5c0.1,0.1,0.1,0.2,0.1,0.3l0.1,0.7L1.8,20.2
	l-0.1-0.7C1.5,18.8,2,18,2.7,17.9z M31.7,29.8L6.6,35.4c-0.4,0.1-0.8,0-1.1-0.2C5.2,35,5,34.7,4.9,34.3l-1.6-7.4l27.9-6.2l1.6,7.4
	c0.1,0.4,0,0.7-0.2,1.1C32.4,29.5,32.1,29.7,31.7,29.8z"/>
</svg>
