<?xml version="1.0" encoding="utf-8"?>
<!-- Generator: Adobe Illustrator 19.2.1, SVG Export Plug-In . SVG Version: 6.00 Build 0)  -->
<svg version="1.1" id="Layer_1" xmlns:ev="http://www.w3.org/2001/xml-events"
	 xmlns="http://www.w3.org/2000/svg" xmlns:xlink="http://www.w3.org/1999/xlink" x="0px" y="0px" width="30" height="35" viewBox="0 0 30 35"
	 style="enable-background:new 0 0 30 35;" xml:space="preserve">
<style type="text/css">
	.st0{fill:#FE770C;}
</style>
<path class="st0" d="M30,18.2C30,18.2,30,18.2,30,18.2c0,0.6,0,1.1,0,1.6c-0.1,2.4-0.9,4.6-2.6,6.9c-1.9,2.5-4.4,4.7-7.7,6.4
	c-1,0.5-2.1,1-3.1,1.4c-0.2,0.1-0.5,0.2-0.7,0.3C15.5,34.9,15.3,35,15,35c-0.2,0-0.4,0-0.6-0.1c-4.2-1.6-7.4-3.7-10.1-6.3
	c-2.1-2.1-3.3-4.3-3.9-6.8C0.2,20.7,0,19.7,0,18.7c0-2.8,0-5.7,0-8.5c0-1,0-2,0-3c0-1.3,0.5-1.8,1.7-1.9c4-0.2,7.8-1.7,12-4.7
	C14.2,0.2,14.5,0,15,0c0.5,0,0.8,0.2,1.2,0.5c3.2,2.2,6,3.6,9,4.2C26,4.9,26.8,5,27.6,5.1c0.3,0,0.5,0.1,0.8,0.1
	C29.7,5.4,30,6.3,30,7c0,1.6,0,3.1,0,4.7l0,1.7v0.1c0,0,0,0,0,0.1L30,18.2z M28.1,13.4v-0.1v0v-1.7c0-1.5,0-2.9,0-4.4
	c-0.2,0-0.4-0.1-0.7-0.1c-0.8-0.1-1.7-0.2-2.6-0.4c-3.2-0.7-6.4-2.2-9.7-4.5c0,0-0.1-0.1-0.1-0.1c-0.1,0-0.1,0.1-0.1,0.1
	C10.4,5.3,6.3,6.9,2,7.2c0,1,0,2,0,3c0,2.8,0,5.7,0,8.5c0,0.9,0.1,1.8,0.3,2.7c0.5,2.1,1.6,4,3.4,5.8c2.4,2.5,5.5,4.4,9.3,5.9
	c0,0,0,0,0,0c0.2-0.1,0.5-0.2,0.7-0.3c1-0.4,2-0.9,2.9-1.4c3.1-1.6,5.4-3.6,7.1-5.9c1.4-1.9,2.1-3.8,2.2-5.8c0-0.5,0-0.9,0-1.5
	c0,0,0,0,0,0V18L28.1,13.4C28.1,13.4,28.1,13.4,28.1,13.4z M13.8,22.4c-0.2,0.2-0.4,0.3-0.7,0.3c-0.2,0-0.5-0.1-0.7-0.3l-2.8-2.8
	c-0.4-0.4-0.4-1,0-1.4s1-0.4,1.4,0l2.1,2.1l5.8-5.9c0.4-0.4,1-0.4,1.4,0c0.4,0.4,0.4,1,0,1.4L13.8,22.4z"/>
</svg>
