<?xml version="1.0" encoding="utf-8"?>
<!-- Generator: Adobe Illustrator 19.2.1, SVG Export Plug-In . SVG Version: 6.00 Build 0)  -->
<svg version="1.1" id="Layer_1" xmlns:ev="http://www.w3.org/2001/xml-events"
	 xmlns="http://www.w3.org/2000/svg" xmlns:xlink="http://www.w3.org/1999/xlink" x="0px" y="0px" width="40" height="34" viewBox="0 0 40 34"
	 style="enable-background:new 0 0 40 34;" xml:space="preserve">
<style type="text/css">
	.st0{fill:#FE770C;}
</style>
<path class="st0" d="M40,24.6c-0.1-2.1-1.2-3.6-2.4-5.2c-0.2-0.3-0.4-0.6-0.6-0.8v-6c0-1-0.4-2.8-1.7-4.3c-1-1.2-2.8-2.7-5.8-2.7
	h-6.5l-0.5-2C23,3.2,23.3,2.6,23.3,2c0-1.1-0.9-2-2.1-2c-0.5,0-0.9,0.1-1.2,0.4C19.7,0.1,19.2,0,18.8,0c-1.1,0-2.1,0.9-2.1,2
	c0,0.6,0.3,1.2,0.7,1.5l-0.5,2h-6.5c-3,0-4.8,1.5-5.8,2.7C3.4,9.8,3,11.5,3,12.5v6c-0.2,0.3-0.4,0.6-0.6,0.8
	c-1.2,1.6-2.3,3.1-2.4,5.2c-0.1,1.9,0.6,3.6,1.9,5C6.3,34,16.6,34,20,34c3.4,0,13.7,0,18.1-4.4C39.4,28.2,40.1,26.5,40,24.6z
	 M21.2,1.7c0.2,0,0.4,0.2,0.4,0.4c0,0.2-0.2,0.4-0.4,0.4c-0.2,0-0.4-0.2-0.4-0.4C20.8,1.8,21,1.7,21.2,1.7z M18.8,1.7
	c0.2,0,0.4,0.2,0.4,0.4c0,0.2-0.2,0.4-0.4,0.4c-0.2,0-0.4-0.2-0.4-0.4C18.4,1.8,18.6,1.7,18.8,1.7z M19,4.1c0.4,0,0.7-0.2,1-0.4
	c0.3,0.2,0.6,0.3,1,0.4l0.4,1.5H20h-1.4L19,4.1z M4.6,12.5c0-1.4,1.4-5.3,5.8-5.3H20h9.6c4.4,0,5.8,3.9,5.8,5.3v2.9
	c-0.1-0.2-0.1-0.3-0.2-0.5c-0.7-2.3-1.5-4-2.6-5.1c-1.1-1.2-2.5-1.8-4.2-1.8H20h-8.4c-1.6,0-3,0.6-4.2,1.8C6.3,11,5.5,12.7,4.8,15
	c0,0.2-0.1,0.3-0.2,0.5V12.5z M1.7,24.6c0.1-1.6,1-2.8,2-4.3c1-1.3,2.1-2.8,2.7-4.9C7,13.4,7.7,12,8.6,11c0.8-0.9,1.8-1.3,3-1.3h1.5
	c-0.2,5.2-1.7,9.6-2.9,12.8c-0.8,2.2-1.4,4-1.4,5.4c0,1.5,0.3,2.6,0.8,3.5c-3-0.7-5.1-1.7-6.4-3C2.1,27.4,1.6,26.1,1.7,24.6z
	 M11.9,31.9c-0.4-0.3-1.4-1.5-1.4-3.9c0-1.1,0.6-2.9,1.3-4.9c1.2-3.3,2.8-7.9,3-13.3H20h5.2c0.2,5.5,1.8,10,3,13.3
	c0.7,2,1.3,3.7,1.3,4.9c0,2.4-1,3.6-1.4,3.9c-3.3,0.5-6.6,0.5-8.1,0.5S15.2,32.3,11.9,31.9z M36.9,28.4c-1.3,1.3-3.5,2.4-6.4,3
	c0.4-0.8,0.8-2,0.8-3.5c0-1.4-0.6-3.2-1.4-5.4c-1.2-3.2-2.7-7.6-2.9-12.8h1.5c1.2,0,2.1,0.4,3,1.3c0.9,0.9,1.6,2.4,2.2,4.4
	c0.6,2.1,1.7,3.6,2.7,4.9c1.1,1.4,2,2.7,2,4.3C38.4,26.1,37.9,27.4,36.9,28.4z"/>
</svg>
