<?xml version="1.0" encoding="utf-8"?>
<!-- Generator: Adobe Illustrator 19.2.1, SVG Export Plug-In . SVG Version: 6.00 Build 0)  -->
<svg version="1.1" id="Layer_1" xmlns:ev="http://www.w3.org/2001/xml-events"
	 xmlns="http://www.w3.org/2000/svg" xmlns:xlink="http://www.w3.org/1999/xlink" width="20" height="21" x="0px" y="0px" viewBox="0 0 20 21"
	 style="enable-background:new 0 0 20 21;" xml:space="preserve">
<style type="text/css">
	.st0{fill:#343D47;}
</style>
<path class="st0" d="M20,5c0-0.1,0-0.2-0.1-0.2c-0.1-0.2-0.2-0.3-0.4-0.3l-9.3-4.4C10.1,0,9.9,0,9.7,0.1L0.3,4.5
	C0.1,4.6,0,4.7,0,4.9v0c0,0,0,0,0,0V16c0,0.2,0.1,0.4,0.3,0.5l9.4,4.4c0,0,0,0,0,0c0,0,0,0,0,0c0,0,0,0,0,0c0,0,0,0,0,0c0,0,0,0,0,0
	c0,0,0,0,0,0c0,0,0,0,0,0c0,0,0,0,0.1,0s0,0,0.1,0c0,0,0,0,0,0c0,0,0,0,0,0c0,0,0,0,0,0c0,0,0,0,0,0c0,0,0,0,0,0c0,0,0,0,0,0
	c0,0,0,0,0,0l9.5-4.4c0.2-0.1,0.3-0.3,0.3-0.5L20,5C20,5,20,5,20,5z M10,1.1L18.2,5l-3,1.4L7,2.5L10,1.1z M10,8.8L1.8,5l3.9-1.8
	L13.9,7L10,8.8z M1.1,5.8l8.3,3.9v9.9l-8.3-3.9V5.8z M10.5,19.6V9.7l3.9-1.8v2.6c0,0.3,0.2,0.5,0.5,0.5c0.3,0,0.6-0.2,0.6-0.5V7.4
	l3.3-1.6v9.9L10.5,19.6z"/>
</svg>
