<?xml version="1.0" encoding="utf-8"?>
<!-- Generator: Adobe Illustrator 19.2.1, SVG Export Plug-In . SVG Version: 6.00 Build 0)  -->
<svg version="1.1" id="Layer_1" xmlns:ev="http://www.w3.org/2001/xml-events"
	 xmlns="http://www.w3.org/2000/svg" xmlns:xlink="http://www.w3.org/1999/xlink" width="23" height="23" x="0px" y="0px" viewBox="0 0 23 23"
	 style="enable-background:new 0 0 23 23;" xml:space="preserve">
<style type="text/css">
	.st0{fill:#343D47;}
</style>
<path class="st0" d="M21.7,18.7c0.3-0.4,0.4-0.9,0.3-1.4l-1.2-5.3l1.4-1.1c0.9-0.7,1.1-2,0.4-2.8l-5.7-7.2C16.5,0.4,16,0.1,15.5,0
	c-0.6-0.1-1.1,0.1-1.6,0.4L1.1,9.9c-0.3,0.2-0.6,0.6-0.7,1c0,0-0.1,0.1-0.1,0.1C0,11.4-0.1,11.9,0,12.4l2.1,9.2
	c0,0.2,0.1,0.3,0.2,0.5c0.4,0.7,1.3,1.1,2.1,0.9l16-3.5C21,19.4,21.4,19.1,21.7,18.7z M19.7,11.9L1.9,15.8l-0.5-2.3l17.8-3.9
	L19.7,11.9z M21.8,8.6c0.4,0.5,0.3,1.1-0.2,1.5l-1.1,0.8l-0.6-2.8c-0.1-0.5-0.4-0.9-0.8-1.2c-0.4-0.3-0.9-0.4-1.5-0.2l-1.2,0.3
	L18.9,5L21.8,8.6z M8.3,8.7l8.5-6.3l1.5,1.9l-4.4,3.2L8.3,8.7z M14.5,1.2C14.8,1,15,1,15.3,1c0.3,0,0.5,0.2,0.7,0.4l0.2,0.2L5.9,9.2
	L2.8,9.9L14.5,1.2z M1.7,11.1l16-3.5c0.2-0.1,0.5,0,0.7,0.1c0.1,0.1,0.2,0.2,0.3,0.3c0,0.1,0.1,0.1,0.1,0.2l0.1,0.4L1.1,12.5L1,12.1
	C0.9,11.7,1.2,11.2,1.7,11.1z M20.3,18.5L4.2,22C4,22,3.7,22,3.5,21.9c-0.2-0.1-0.3-0.3-0.4-0.5l-1-4.6l17.8-3.9l1,4.6
	c0.1,0.2,0,0.5-0.1,0.7C20.7,18.3,20.5,18.5,20.3,18.5z"/>
</svg>
