<svg version="1" xmlns="http://www.w3.org/2000/svg" width="352" height="352" viewBox="0 0 264.000000 264.000000"><path d="M121.1 32.8c-5.8 13.6-14 33.1-18.3 43.3L95 94.6l-46.9 3.9c-25.8 2.2-46.7 4.3-46.5 4.7.3.4 15.4 13.7 33.7 29.4 18.3 15.8 34 29.5 35.1 30.4 1.8 1.8 1.6 3-8.8 47.5-5.9 25.1-10.6 45.8-10.4 46 .2.1 18.4-10.8 40.5-24.2l40.2-24.3 40.3 24.4c22.2 13.4 40.4 24.3 40.5 24.2.2-.2-4.4-20.4-10.2-45.1-5.8-24.6-10.5-45.4-10.5-46 0-.7 15.8-14.9 35-31.5 19.3-16.7 35-30.6 35-30.9 0-.4-20.8-2.4-46.2-4.5-25.5-2.1-46.6-4.1-47-4.5-.3-.3-8.5-19.5-18.3-42.6-9.7-23.1-17.9-42.3-18.3-42.7-.4-.4-5.4 10.4-11.1 24zm21.8 58.4l10.2 24.4 22.7 1.8c12.5 1.1 24.6 2.2 27 2.5l4.3.6-18.9 16.3c-10.4 9-19.6 17.1-20.5 18-1.3 1.5-.8 4.4 4.5 27 3.3 14 5.8 25.6 5.5 25.8-.3.3-10.7-5.7-23.1-13.2l-22.7-13.6-19.6 11.8c-10.9 6.6-21.4 12.9-23.4 14.1l-3.7 2.3.9-3.8c.4-2 3.1-13.3 5.9-25.1 2.7-11.8 5-22.2 5-23.2 0-.9-8.8-9.2-20-18.9-11-9.5-19.9-17.4-19.7-17.6.2-.2 12-1.3 26.2-2.5 14.7-1.2 26.5-2.7 27.1-3.3.6-.6 5.6-11.7 11-24.8 5.4-13 10.1-23.5 10.4-23.3.4.2 5.2 11.3 10.9 24.7z"/></svg>